REM DIRINDEX 1\2\4,1\2\5,1\2\6,1\2\7,1\3\8,1\3\9
REM DIRNAME cjc037,folder01,folder02,folder03,folder04,folder05,folder06,folder07,folder08
TITLE ""
FILE "Disc2Track01.mp3" MP3
  TRACK 01 AUDIO
    TITLE "0:"
    INDEX 01 00:00:00
  TRACK 02 AUDIO
    TITLE "4:cjc037_0824"
    INDEX 01 00:00:05
  TRACK 03 AUDIO
    TITLE "0:"
    INDEX 01 00:01:58
  TRACK 04 AUDIO
    TITLE "4:cjc037_0825"
    INDEX 01 00:02:61
  TRACK 05 AUDIO
    TITLE "0:"
    INDEX 01 00:04:19
  TRACK 06 AUDIO
    TITLE "5:cjc037_0826"
    INDEX 01 00:04:68
  TRACK 07 AUDIO
    TITLE "0:"
    INDEX 01 00:08:19
  TRACK 08 AUDIO
    TITLE "6:cjc037_0827"
    INDEX 01 00:11:54
  TRACK 09 AUDIO
    TITLE "0:"
    INDEX 01 00:14:56
  TRACK 10 AUDIO
    TITLE "7:cjc037_0828"
    INDEX 01 00:18:15
  TRACK 11 AUDIO
    TITLE "0:"
    INDEX 01 00:20:55
  TRACK 12 AUDIO
    TITLE "4:cjc037_0829"
    INDEX 01 00:23:20
  TRACK 13 AUDIO
    TITLE "0:"
    INDEX 01 00:24:55
  TRACK 14 AUDIO
    TITLE "5:cjc037_0830"
    INDEX 01 00:25:29
  TRACK 15 AUDIO
    TITLE "0:"
    INDEX 01 00:30:24
  TRACK 16 AUDIO
    TITLE "6:cjc037_0831"
    INDEX 01 00:33:62
  TRACK 17 AUDIO
    TITLE "0:"
    INDEX 01 00:37:42
  TRACK 18 AUDIO
    TITLE "7:cjc037_0832"
    INDEX 01 00:41:02
  TRACK 19 AUDIO
    TITLE "0:"
    INDEX 01 00:43:70
  TRACK 20 AUDIO
    TITLE "4:cjc037_0833"
    INDEX 01 00:46:27
  TRACK 21 AUDIO
    TITLE "0:"
    INDEX 01 00:47:58
  TRACK 22 AUDIO
    TITLE "5:cjc037_0834"
    INDEX 01 00:48:36
  TRACK 23 AUDIO
    TITLE "0:"
    INDEX 01 00:53:39
  TRACK 24 AUDIO
    TITLE "6:cjc037_0835"
    INDEX 01 00:57:01
  TRACK 25 AUDIO
    TITLE "0:"
    INDEX 01 01:01:15
  TRACK 26 AUDIO
    TITLE "7:cjc037_0836"
    INDEX 01 01:04:50
  TRACK 27 AUDIO
    TITLE "0:"
    INDEX 01 01:08:05
  TRACK 28 AUDIO
    TITLE "4:cjc037_0837"
    INDEX 01 01:10:39
  TRACK 29 AUDIO
    TITLE "0:"
    INDEX 01 01:12:03
  TRACK 30 AUDIO
    TITLE "5:cjc037_0838"
    INDEX 01 01:12:56
  TRACK 31 AUDIO
    TITLE "0:"
    INDEX 01 01:16:36
  TRACK 32 AUDIO
    TITLE "6:cjc037_0839"
    INDEX 01 01:19:74
  TRACK 33 AUDIO
    TITLE "0:"
    INDEX 01 01:22:60
  TRACK 34 AUDIO
    TITLE "7:cjc037_0840"
    INDEX 01 01:26:19
  TRACK 35 AUDIO
    TITLE "0:"
    INDEX 01 01:28:41
  TRACK 36 AUDIO
    TITLE "4:cjc037_0841"
    INDEX 01 01:31:02
  TRACK 37 AUDIO
    TITLE "0:"
    INDEX 01 01:32:37
  TRACK 38 AUDIO
    TITLE "5:cjc037_0842"
    INDEX 01 01:33:15
  TRACK 39 AUDIO
    TITLE "0:"
    INDEX 01 01:36:70
  TRACK 40 AUDIO
    TITLE "6:cjc037_0843"
    INDEX 01 01:40:29
  TRACK 41 AUDIO
    TITLE "0:"
    INDEX 01 01:43:70
  TRACK 42 AUDIO
    TITLE "7:cjc037_0844"
    INDEX 01 01:47:29
  TRACK 43 AUDIO
    TITLE "0:"
    INDEX 01 01:50:04
  TRACK 44 AUDIO
    TITLE "4:cjc037_0845"
    INDEX 01 01:52:38
  TRACK 45 AUDIO
    TITLE "0:"
    INDEX 01 01:54:03
  TRACK 46 AUDIO
    TITLE "5:cjc037_0846"
    INDEX 01 01:54:58
  TRACK 47 AUDIO
    TITLE "0:"
    INDEX 01 01:58:30
  TRACK 48 AUDIO
    TITLE "6:cjc037_0847"
    INDEX 01 02:01:70
  TRACK 49 AUDIO
    TITLE "0:"
    INDEX 01 02:06:16
  TRACK 50 AUDIO
    TITLE "7:cjc037_0848"
    INDEX 01 02:09:50
  TRACK 51 AUDIO
    TITLE "0:"
    INDEX 01 02:13:20
  TRACK 52 AUDIO
    TITLE "4:cjc037_0849"
    INDEX 01 02:15:52
  TRACK 53 AUDIO
    TITLE "0:"
    INDEX 01 02:17:18
  TRACK 54 AUDIO
    TITLE "5:cjc037_0850"
    INDEX 01 02:17:73
  TRACK 55 AUDIO
    TITLE "0:"
    INDEX 01 02:19:64
  TRACK 56 AUDIO
    TITLE "6:cjc037_0851"
    INDEX 01 02:23:25
  TRACK 57 AUDIO
    TITLE "0:"
    INDEX 01 02:25:35
  TRACK 58 AUDIO
    TITLE "7:cjc037_0852"
    INDEX 01 02:28:71
  TRACK 59 AUDIO
    TITLE "0:"
    INDEX 01 02:30:60
  TRACK 60 AUDIO
    TITLE "4:cjc037_0853"
    INDEX 01 02:33:21
  TRACK 61 AUDIO
    TITLE "0:"
    INDEX 01 02:34:52
  TRACK 62 AUDIO
    TITLE "5:cjc037_0854"
    INDEX 01 02:35:32
  TRACK 63 AUDIO
    TITLE "0:"
    INDEX 01 02:39:33
  TRACK 64 AUDIO
    TITLE "6:cjc037_0855"
    INDEX 01 02:42:73
  TRACK 65 AUDIO
    TITLE "0:"
    INDEX 01 02:46:51
  TRACK 66 AUDIO
    TITLE "7:cjc037_0856"
    INDEX 01 02:50:12
  TRACK 67 AUDIO
    TITLE "0:"
    INDEX 01 02:53:10
